<?xml version="1.0" standalone="no"?>
<!DOCTYPE svg PUBLIC "-//W3C//DTD SVG 20010904//EN"
 "http://www.w3.org/TR/2001/REC-SVG-20010904/DTD/svg10.dtd">
<svg version="1.0" xmlns="http://www.w3.org/2000/svg"
 width="2048.000000pt" height="2048.000000pt" viewBox="0 0 2048.000000 2048.000000"
 preserveAspectRatio="xMidYMid meet">

<g transform="translate(0.000000,2048.000000) scale(0.100000,-0.100000)"
fill="#000000" stroke="none">
<path d="M13603 19890 c-25 -10 -31 -47 -9 -56 7 -3 26 -31 42 -62 l29 -57 -1
-510 -1 -510 -25 -81 c-27 -85 -42 -116 -84 -173 -32 -45 -28 -67 11 -63 17 2
125 7 240 12 187 7 429 31 614 61 89 14 129 48 176 152 28 61 44 179 33 251
-15 109 -115 248 -220 310 -25 15 -73 32 -106 39 l-61 12 77 40 c155 79 219
180 209 329 -9 142 -87 263 -184 287 -21 6 -122 12 -225 15 -104 2 -257 7
-340 9 -90 3 -162 1 -175 -5z m545 -195 c56 -26 70 -47 79 -122 8 -60 -14
-170 -45 -227 -19 -35 -43 -60 -84 -87 -51 -33 -105 -55 -113 -47 -6 6 14 484
21 502 9 22 66 15 142 -19z m0 -576 c55 -40 90 -116 108 -233 27 -182 13 -249
-75 -336 -56 -56 -124 -91 -142 -73 -5 5 -18 44 -29 87 -15 60 -22 137 -30
320 -5 132 -10 244 -10 248 0 6 33 11 111 16 14 1 42 -11 67 -29z"/>
<path d="M17951 19887 c-56 -28 -86 -116 -61 -176 17 -41 67 -58 108 -37 41
21 91 83 98 122 8 45 -9 70 -63 88 -55 19 -52 19 -82 3z"/>
<path d="M9800 19844 c-19 -8 -43 -25 -52 -37 -26 -32 -23 -104 5 -146 12 -19
31 -50 43 -70 26 -46 65 -52 114 -19 46 31 60 61 60 128 0 110 -84 182 -170
144z"/>
<path d="M8020 19838 c-58 -5 -142 -11 -187 -14 -45 -3 -90 -12 -100 -19 -17
-13 -17 -15 0 -62 10 -26 25 -64 32 -83 14 -38 26 -132 51 -426 20 -233 9
-441 -30 -596 -29 -113 -43 -138 -94 -164 -78 -40 -92 -53 -92 -89 0 -26 6
-39 25 -51 23 -15 28 -14 82 10 82 38 185 51 287 37 149 -20 289 -24 425 -11
131 12 134 14 194 54 34 22 76 60 94 84 70 92 94 259 52 364 -50 128 -126 220
-215 262 -30 14 -54 30 -54 35 0 5 30 38 66 73 36 35 77 85 91 112 23 45 25
58 21 150 -3 89 -8 109 -36 168 -18 37 -48 80 -67 95 -88 73 -258 95 -545 71z
m246 -153 c71 -74 93 -202 58 -339 -27 -107 -98 -203 -156 -212 -33 -6 -35 -4
-41 23 -3 17 -9 127 -13 246 -7 210 -6 216 15 259 43 82 75 88 137 23z m75
-672 c36 -92 38 -258 5 -387 -29 -113 -51 -156 -89 -174 -44 -21 -63 -8 -80
56 -17 61 -43 267 -53 423 l-7 96 55 6 c30 4 72 13 94 21 21 8 42 15 46 15 4
1 17 -25 29 -56z"/>
<path d="M1971 19803 c-35 -7 -70 -18 -78 -25 -39 -32 -70 -134 -99 -323 -19
-123 -46 -270 -98 -515 -55 -264 -48 -255 -81 -115 -15 66 -54 230 -87 365
-32 135 -70 306 -84 380 -31 171 -30 167 -64 185 -32 17 -185 20 -373 8 -94
-5 -107 -8 -107 -24 0 -10 13 -25 30 -34 71 -37 86 -133 83 -550 -1 -176 -6
-392 -11 -481 -10 -176 -24 -225 -82 -290 -29 -33 -29 -36 -15 -63 l14 -29
258 -6 c142 -4 275 -9 295 -12 57 -9 61 18 11 61 -74 63 -75 66 -76 435 -1
216 2 333 8 339 11 11 121 -413 150 -578 15 -89 34 -121 70 -121 32 0 39 13
64 130 12 58 53 197 89 309 66 201 67 203 75 160 4 -24 8 -159 9 -299 2 -276
0 -284 -54 -353 -42 -52 -31 -71 43 -74 178 -8 574 -2 586 9 31 25 11 61 -59
107 -56 36 -72 53 -95 100 l-28 56 -8 435 c-7 424 -1 603 24 667 5 14 25 44
44 66 36 42 45 74 23 82 -31 12 -317 10 -377 -2z"/>
<path d="M10710 19803 c0 -7 11 -28 25 -48 60 -89 80 -188 89 -444 l5 -155
-31 38 c-106 129 -294 58 -407 -154 -82 -154 -99 -397 -36 -525 32 -67 91
-134 132 -151 36 -16 149 -19 157 -5 3 5 30 23 60 39 69 39 121 101 149 177
l22 60 6 -80 c3 -44 13 -96 21 -116 29 -66 110 -105 200 -93 43 6 59 14 86 42
36 38 37 55 3 60 -28 4 -72 95 -103 211 -24 89 -28 296 -9 471 23 209 24 300
7 395 -28 149 -81 237 -168 278 -43 20 -208 20 -208 0z m17 -683 c34 -17 66
-36 71 -43 6 -7 17 -58 25 -114 l14 -101 -34 -133 c-19 -73 -42 -151 -52 -174
-22 -49 -91 -125 -114 -125 -21 0 -51 58 -79 157 -33 112 -32 322 1 440 19 69
28 86 55 102 40 27 42 26 113 -9z"/>
<path d="M17855 19522 c-27 -4 -56 -11 -62 -15 -27 -17 -13 -52 37 -95 81 -70
84 -89 76 -492 -6 -259 -11 -340 -21 -357 -8 -11 -33 -27 -56 -35 -50 -17 -72
-43 -49 -58 27 -17 124 -23 375 -24 l250 -1 0 23 c0 19 -10 27 -55 45 -48 19
-58 28 -80 72 -24 49 -25 56 -26 280 -1 127 -7 309 -13 405 -13 173 -13 175
-41 202 -16 15 -46 32 -67 38 -48 14 -203 21 -268 12z"/>
<path d="M15815 19482 c-27 -15 -67 -39 -87 -53 l-37 -25 34 0 c19 0 43 -8 55
-19 47 -43 72 -236 73 -570 1 -242 0 -251 -64 -314 -56 -56 -43 -61 160 -61
179 0 216 7 179 34 -10 8 -19 60 -32 176 -10 91 -23 201 -28 245 -5 44 -6 118
-3 165 4 47 8 117 9 155 2 83 21 124 73 160 47 31 107 34 123 6 14 -28 13
-692 -1 -801 -7 -47 -17 -91 -22 -98 -6 -8 -7 -16 -1 -22 10 -10 332 -15 342
-5 4 4 -1 11 -11 16 -9 6 -17 19 -17 29 0 10 -4 21 -9 24 -24 15 -33 111 -40
427 -7 310 -9 338 -29 390 -24 60 -74 119 -122 144 -35 18 -137 30 -175 21
-15 -4 -49 -27 -75 -52 l-49 -46 -33 38 c-61 69 -131 81 -213 36z m122 -58
c-3 -3 -12 -4 -19 -1 -8 3 -5 6 6 6 11 1 17 -2 13 -5z"/>
<path d="M16760 19500 c-90 -9 -120 -17 -120 -33 0 -20 13 -32 48 -47 36 -14
75 -60 87 -100 4 -14 36 -90 72 -170 168 -376 273 -664 273 -750 0 -92 -78
-251 -142 -290 -18 -11 -36 -20 -40 -20 -17 0 -59 48 -68 78 -9 33 -9 33 21
27 20 -5 38 -1 55 10 50 32 52 94 4 145 -22 24 -37 30 -68 30 -55 0 -70 -7
-89 -44 -27 -51 -21 -145 13 -213 52 -105 139 -133 221 -73 46 34 113 132 133
195 7 22 18 45 24 50 14 11 31 57 161 420 59 166 116 306 157 386 36 69 71
143 78 165 18 56 76 168 94 183 12 10 13 18 5 32 -9 17 -22 19 -139 19 -130 0
-185 -10 -178 -33 3 -6 23 -13 45 -15 58 -4 68 -21 66 -111 -2 -89 -24 -157
-83 -252 -22 -35 -54 -91 -71 -123 l-31 -59 -27 54 c-15 30 -41 77 -59 104
-41 64 -152 311 -152 338 0 11 15 33 33 48 51 44 30 54 -121 56 -70 0 -161 -2
-202 -7z"/>
<path d="M19605 19501 c-57 -10 -98 -35 -132 -78 -48 -60 -53 -77 -53 -161 0
-157 57 -262 236 -439 63 -62 123 -127 134 -145 36 -60 17 -128 -37 -128 -24
0 -198 84 -208 100 -4 7 -23 18 -41 26 l-34 14 6 73 c7 93 -4 132 -37 132
l-24 0 -2 -155 c-4 -212 5 -330 23 -330 19 0 21 9 29 111 l7 86 80 -53 c95
-63 153 -84 227 -84 70 0 121 23 190 86 76 69 94 120 71 205 -14 51 -114 164
-211 239 -156 120 -259 243 -259 311 0 71 148 112 263 73 56 -19 64 -32 112
-177 37 -107 46 -123 68 -114 19 7 30 143 21 256 -10 123 -27 147 -69 96 l-20
-26 -55 30 c-35 18 -82 33 -130 40 -41 5 -84 12 -95 14 -11 3 -38 2 -60 -2z"/>
<path d="M18941 19490 c-66 -10 -120 -73 -151 -176 l-23 -77 -18 73 c-36 142
-87 176 -244 166 -112 -8 -144 -19 -163 -58 -17 -37 -1 -73 45 -97 61 -32 78
-69 103 -231 19 -125 22 -180 21 -395 -2 -275 -12 -389 -41 -469 -21 -55 -65
-104 -115 -127 -42 -20 -46 -61 -9 -86 24 -15 57 -19 214 -23 300 -9 320 -4
286 68 -21 43 -34 198 -38 443 l-3 176 38 -43 c43 -49 89 -68 144 -58 58 10
170 73 207 115 68 80 115 296 96 445 -25 199 -78 318 -157 350 -34 15 -118 16
-192 4z m44 -64 c41 -41 45 -80 35 -371 -9 -254 -17 -335 -35 -378 -6 -14 -14
-17 -34 -12 -37 9 -77 50 -115 120 -30 54 -35 73 -47 196 l-12 135 37 115 c21
62 42 123 48 134 11 22 78 85 91 85 4 0 19 -11 32 -24z"/>
<path d="M9840 19483 c-14 -2 -54 -13 -90 -24 -90 -27 -99 -46 -50 -103 17
-18 37 -50 45 -70 29 -69 55 -269 66 -501 9 -200 9 -235 -5 -266 -13 -31 -21
-37 -54 -42 -91 -12 -129 -60 -81 -103 19 -17 34 -19 158 -16 216 5 407 19
430 31 12 7 21 21 21 35 0 27 -26 52 -97 95 -79 49 -82 55 -71 201 5 69 8 208
5 310 -5 200 -18 263 -71 354 -41 70 -131 113 -206 99z"/>
<path d="M11975 19478 c-11 -6 -35 -24 -54 -40 -52 -46 -73 -50 -127 -26 -40
17 -66 20 -157 20 -92 -1 -117 -5 -160 -25 -152 -70 -227 -213 -229 -436 0
-110 12 -149 69 -212 31 -34 35 -43 25 -57 -65 -89 -51 -180 37 -239 46 -31
94 -43 215 -52 131 -11 206 -35 262 -84 81 -71 89 -169 21 -243 -26 -28 -43
-36 -92 -44 -33 -6 -85 -10 -116 -10 -66 0 -250 49 -288 77 -41 31 -64 77 -56
114 9 42 82 111 139 133 58 22 61 46 7 46 -88 0 -175 -55 -212 -135 -25 -53
-23 -101 4 -150 31 -55 98 -97 219 -137 91 -29 114 -33 200 -31 134 2 193 16
258 61 77 53 105 106 104 197 -1 107 -49 196 -140 261 -69 49 -129 65 -304 79
-115 9 -167 17 -185 29 -29 19 -30 27 -10 66 15 28 16 29 50 15 20 -9 71 -15
122 -16 78 -1 95 2 154 29 76 34 101 63 153 171 56 117 70 199 57 328 -7 59
-14 122 -17 140 -6 29 -3 32 38 50 23 11 49 27 57 36 19 23 46 21 71 -5 24
-26 26 -38 6 -38 -23 0 -56 -50 -56 -84 0 -83 109 -106 138 -29 34 90 25 140
-38 204 -43 46 -50 49 -96 49 -27 0 -58 -6 -69 -12z m-301 -177 c3 -4 17 -54
31 -111 33 -130 36 -239 7 -329 -28 -86 -62 -121 -119 -121 -62 0 -75 25 -81
157 -8 168 30 329 91 386 29 27 61 35 71 18z"/>
<path d="M5555 19470 c-71 -11 -151 -36 -191 -61 -46 -28 -98 -93 -129 -162
-23 -50 -25 -60 -13 -84 31 -66 120 -51 126 21 3 40 -10 64 -42 76 -18 6 -15
12 31 58 32 32 66 55 93 63 60 18 93 -3 157 -99 69 -104 73 -113 73 -170 0
-38 -7 -59 -31 -96 -36 -54 -42 -57 -204 -117 -185 -68 -225 -123 -225 -303 0
-128 34 -195 130 -259 61 -42 223 6 304 89 l36 37 49 -47 c50 -45 51 -46 118
-46 118 0 187 51 169 124 -9 35 -27 33 -48 -5 -11 -18 -22 -27 -29 -23 -16 9
-4 341 16 452 7 44 17 145 21 224 8 163 3 180 -63 238 -50 44 -124 77 -203 89
-71 12 -73 12 -145 1z m91 -581 c-24 -142 -29 -277 -12 -339 14 -51 13 -56 -4
-75 -10 -11 -32 -28 -49 -38 l-30 -17 -17 76 c-12 54 -15 103 -12 168 4 79 10
104 43 176 32 73 82 147 92 137 1 -2 -4 -41 -11 -88z"/>
<path d="M9356 19456 c-21 -8 -60 -36 -86 -61 l-47 -47 -7 37 c-10 54 -45 65
-205 65 -71 0 -141 -4 -155 -10 -37 -14 -36 -59 3 -88 25 -18 31 -32 44 -109
28 -157 39 -324 36 -518 -4 -185 -5 -192 -31 -244 -16 -29 -28 -66 -28 -82 0
-46 28 -53 167 -42 65 6 148 8 186 6 74 -6 97 4 97 42 0 12 -7 28 -16 36 -57
47 -81 177 -89 484 l-6 240 30 67 c34 75 79 131 122 154 26 13 32 13 59 -1 30
-15 60 -60 60 -89 0 -8 -14 -31 -31 -50 -38 -44 -37 -80 3 -84 94 -11 152 123
95 222 -39 69 -125 100 -201 72z"/>
<path d="M4065 19436 c-64 -32 -122 -92 -140 -142 l-14 -39 -1 50 c0 28 -4 56
-9 64 -19 29 -301 43 -336 17 -16 -12 -17 -16 -6 -30 7 -9 19 -16 26 -16 25 0
53 -50 66 -117 10 -49 14 -156 14 -383 0 -276 -2 -322 -18 -374 -12 -39 -24
-60 -37 -63 -23 -6 -33 -29 -17 -40 7 -5 108 -7 225 -5 222 4 236 8 193 46
-28 25 -58 102 -70 177 -17 99 -14 441 4 544 19 106 30 128 94 188 60 56 106
63 146 22 31 -30 35 -85 7 -85 -26 0 -62 -28 -73 -57 -21 -56 22 -103 94 -103
94 0 164 182 104 271 -60 90 -163 120 -252 75z"/>
<path d="M14802 19450 c-82 -9 -104 -22 -100 -59 3 -26 4 -26 85 -26 99 1 111
-10 94 -87 -16 -69 -34 -421 -26 -513 26 -324 55 -375 217 -375 75 0 89 3 129
28 24 16 67 56 94 90 l50 62 19 -38 c39 -79 84 -109 183 -123 56 -8 69 -6 104
12 46 23 46 40 1 54 -59 17 -82 127 -82 401 0 99 -3 243 -7 318 -6 130 -8 140
-37 189 -18 30 -42 55 -57 61 -16 5 -69 4 -143 -4 -99 -11 -117 -15 -114 -29
2 -11 16 -17 45 -19 42 -3 42 -4 42 -40 0 -20 5 -125 11 -232 19 -315 -4 -423
-115 -537 -28 -29 -56 -53 -62 -53 -6 0 -12 144 -17 431 -5 267 -11 440 -18
454 -6 13 -20 26 -32 29 -44 10 -194 14 -264 6z"/>
<path d="M12486 19432 c-55 -18 -140 -97 -181 -166 -62 -107 -94 -292 -76
-431 7 -47 20 -118 31 -159 83 -325 327 -425 530 -217 86 88 157 243 121 265
-12 8 -34 -20 -64 -79 -34 -68 -106 -146 -161 -176 -45 -23 -46 -23 -60 -4
-28 38 -38 101 -43 276 l-5 176 39 5 c135 18 243 153 243 301 0 115 -44 175
-151 207 -77 24 -157 25 -223 2z m255 -88 c80 -41 75 -169 -10 -266 -31 -35
-103 -78 -131 -78 -21 0 -6 316 16 341 21 24 83 25 125 3z"/>
<path d="M6100 19428 c-138 -13 -159 -46 -58 -95 45 -21 48 -26 136 -206 50
-102 111 -241 135 -308 25 -68 77 -184 117 -258 114 -212 118 -291 21 -451
-100 -164 -139 -178 -186 -67 -20 49 -19 67 4 67 26 0 61 46 61 79 0 14 -9 41
-20 59 -39 63 -106 68 -137 9 -21 -38 -23 -148 -4 -214 18 -65 70 -135 113
-151 47 -18 72 -12 141 35 105 72 190 207 266 426 27 78 70 201 95 272 28 81
62 214 91 355 26 124 52 249 60 278 13 51 45 91 73 92 7 0 15 7 18 15 4 8 12
15 19 15 7 0 18 7 26 16 23 28 -8 36 -121 30 -213 -12 -250 -17 -250 -37 0
-13 12 -21 43 -30 43 -11 72 -31 88 -61 20 -38 -49 -354 -137 -628 -3 -8 -15
8 -28 40 -13 30 -53 127 -91 215 -37 88 -87 212 -110 275 -24 63 -46 122 -49
131 -5 12 0 18 21 24 62 15 70 49 18 71 -39 16 -198 17 -355 2z"/>
<path d="M4865 19408 c-11 -6 -41 -31 -67 -56 -26 -25 -49 -44 -50 -41 -2 2
-12 22 -23 44 -24 48 -46 54 -213 54 -117 1 -144 -6 -162 -39 -14 -25 3 -60
29 -60 10 0 26 -9 35 -19 32 -35 74 -331 83 -583 7 -189 -3 -236 -59 -283 -37
-31 -31 -55 14 -56 18 0 107 -4 198 -9 146 -7 166 -6 178 8 18 24 15 31 -25
69 l-38 34 0 382 0 382 51 51 c66 66 91 71 138 27 39 -37 46 -72 20 -94 -43
-36 -36 -109 11 -109 41 0 65 18 86 63 39 88 17 172 -60 224 -37 25 -111 31
-146 11z"/>
<path d="M2510 19335 c-13 -15 -13 -14 35 -81 22 -30 35 -166 35 -364 0 -260
17 -477 41 -527 30 -63 60 -78 147 -75 114 3 144 15 222 88 l69 65 40 -40 c52
-52 101 -77 181 -91 85 -15 181 2 194 36 8 21 -4 44 -23 44 -44 0 -95 97 -111
211 -6 41 -11 221 -12 401 l-1 326 -24 11 c-26 12 -223 15 -285 5 -39 -7 -53
-24 -20 -24 11 0 26 -8 35 -18 21 -22 22 -125 7 -490 -8 -186 -14 -251 -26
-274 -38 -74 -165 -178 -177 -145 -3 6 -2 222 1 478 l5 466 -24 6 c-13 4 -85
7 -160 7 -109 0 -139 -3 -149 -15z"/>
<path d="M10170 17466 c-19 -7 -98 -18 -175 -25 -329 -30 -463 -54 -588 -106
-20 -8 -48 -15 -62 -15 -15 0 -46 -14 -71 -31 -58 -39 -255 -225 -340 -320
-65 -72 -246 -320 -357 -489 -31 -47 -71 -104 -88 -128 -17 -24 -70 -112 -119
-195 -48 -84 -109 -184 -134 -223 -26 -40 -82 -150 -125 -245 -43 -96 -93
-205 -111 -244 -200 -434 -338 -868 -415 -1310 -14 -82 -37 -195 -50 -250 -13
-55 -31 -144 -40 -199 -8 -54 -17 -101 -19 -105 -2 -3 -12 -60 -21 -126 -8
-66 -25 -166 -35 -223 -17 -86 -20 -146 -20 -365 0 -149 7 -333 15 -427 8 -91
15 -170 15 -177 0 -8 -13 -5 -36 9 -54 32 -177 37 -221 9 -79 -49 -111 -189
-74 -320 24 -85 34 -99 94 -129 80 -40 157 -21 234 58 l41 42 9 -78 c15 -144
9 -209 -31 -329 -20 -60 -40 -116 -44 -123 -5 -8 -12 38 -16 113 -3 70 -11
136 -17 146 -11 21 -44 25 -55 7 -5 -7 -12 -96 -16 -198 -6 -170 -6 -186 11
-200 16 -14 13 -25 -68 -190 l-85 -175 -6 72 c-4 65 -8 75 -39 107 -86 89
-223 68 -307 -45 -52 -71 -22 -221 58 -291 36 -31 100 -44 141 -29 27 10 28
10 22 -11 -4 -13 -19 -44 -34 -69 -86 -149 -117 -199 -121 -199 -3 0 -14 17
-25 37 -11 20 -37 50 -58 67 -35 28 -46 31 -107 31 -82 0 -113 -18 -147 -85
-43 -83 -21 -191 52 -259 24 -22 54 -41 65 -41 11 0 20 -5 20 -10 0 -41 -319
-404 -338 -385 -4 4 -7 57 -7 118 0 108 -1 112 -22 115 -43 6 -57 -36 -63
-197 l-5 -147 -129 -144 c-71 -80 -151 -173 -178 -207 -27 -34 -82 -90 -121
-124 -65 -56 -141 -124 -321 -289 -34 -31 -83 -71 -111 -90 -27 -18 -70 -50
-95 -70 -25 -20 -58 -44 -75 -55 -119 -74 -380 -312 -462 -420 -68 -90 -85
-132 -162 -408 -38 -136 -53 -329 -28 -368 8 -13 18 -39 22 -57 15 -71 85 -53
85 23 0 21 5 35 13 36 6 1 19 2 27 3 8 2 71 3 139 4 l124 2 -7 69 c-8 78 3
113 41 130 30 14 70 14 78 1 4 -6 82 -10 201 -10 l194 0 0 28 c0 33 67 103
122 125 32 14 45 14 102 2 36 -8 75 -19 87 -26 14 -7 51 -10 101 -7 71 4 82 8
111 36 18 17 45 36 60 41 33 13 128 15 142 3 6 -4 156 -5 334 -2 263 4 325 8
329 19 16 49 82 66 119 32 19 -18 31 -19 136 -14 l115 6 32 53 c23 39 39 54
54 54 27 0 46 -18 46 -42 0 -10 2 -18 5 -18 2 0 31 17 64 39 79 51 164 71 293
70 57 0 110 -3 119 -5 9 -3 23 -19 30 -37 6 -18 23 -44 36 -58 l23 -25 -31
-85 c-43 -118 -102 -304 -139 -439 -57 -212 -93 -335 -116 -397 -54 -143 -171
-644 -194 -833 -55 -434 -58 -465 -70 -675 -6 -104 -15 -219 -20 -255 -37
-264 -33 -422 14 -551 29 -79 99 -247 120 -286 32 -60 275 -293 387 -371 61
-41 259 -126 384 -163 199 -60 568 -75 991 -40 354 30 575 34 729 15 125 -15
144 -16 238 -12 23 2 134 -5 247 -14 510 -42 998 -47 1436 -13 150 11 199 19
304 50 244 70 320 120 515 335 98 108 185 229 237 328 23 42 52 97 65 122 13
25 40 97 59 160 20 63 60 189 89 280 97 299 125 465 125 747 0 209 -22 395
-66 563 -20 74 -56 212 -79 305 -71 278 -133 464 -235 709 -22 54 -39 101 -36
103 10 11 52 -47 69 -95 22 -63 94 -144 154 -173 31 -15 75 -25 128 -29 77 -6
81 -5 113 22 39 34 71 50 142 73 30 10 75 33 101 51 63 46 102 61 179 69 72 7
206 -15 246 -41 12 -9 49 -18 81 -21 66 -7 112 -27 198 -88 l61 -43 239 -5
c225 -4 249 -7 380 -37 77 -18 152 -34 166 -37 23 -4 37 8 114 99 48 56 105
122 127 146 37 40 58 47 58 18 0 -23 41 -66 62 -66 13 0 18 5 15 14 -3 8 -1
30 5 49 8 26 7 53 -6 114 -9 44 -16 105 -16 136 0 41 -17 110 -60 249 -54 172
-76 224 -205 483 -154 310 -150 302 -329 541 -202 268 -278 347 -568 588 -98
80 -210 177 -250 214 -40 37 -95 82 -121 100 -55 38 -164 128 -295 245 -96 85
-262 259 -262 274 0 5 -16 27 -36 49 -20 21 -68 84 -106 139 -168 244 -233
348 -284 455 -30 63 -70 144 -88 180 -19 36 -48 110 -66 164 l-33 100 22 110
c11 61 25 176 31 256 5 80 18 192 29 250 24 133 39 273 50 475 14 239 39 670
51 845 5 85 15 317 21 515 10 323 9 374 -6 495 -9 74 -21 180 -25 235 -19 228
-51 422 -101 605 -51 188 -150 532 -173 602 -35 107 -110 252 -197 385 -41 61
-90 139 -109 174 -88 156 -291 376 -495 536 -115 90 -362 237 -470 280 -278
111 -399 143 -605 158 -156 12 -330 34 -350 45 -27 14 -257 11 -300 -4z m375
-281 c132 -13 289 -29 349 -35 179 -18 426 -107 654 -236 252 -143 370 -232
549 -418 139 -144 236 -283 349 -501 60 -116 67 -137 180 -550 83 -303 116
-449 129 -570 4 -33 13 -89 21 -125 7 -36 14 -93 14 -128 0 -34 7 -108 16
-165 13 -85 15 -158 9 -447 -4 -190 -11 -364 -16 -387 -5 -23 -13 -149 -19
-280 -6 -131 -17 -335 -26 -453 -8 -118 -19 -289 -24 -380 -10 -178 -21 -271
-45 -392 -8 -43 -19 -149 -25 -235 -11 -176 -16 -209 -36 -238 -8 -11 -14 -44
-14 -75 0 -30 -7 -84 -16 -120 -8 -36 -26 -119 -39 -184 -21 -102 -35 -142
-104 -285 -130 -273 -154 -342 -177 -511 -8 -63 -23 -142 -33 -175 -10 -33
-22 -82 -26 -110 -4 -27 -9 -53 -11 -56 -2 -4 -36 6 -74 22 -363 147 -1034
285 -1562 319 -128 8 -164 8 -197 -4 -35 -12 -47 -12 -81 0 -33 12 -70 12
-195 4 -138 -8 -275 -22 -375 -36 -19 -3 -66 -9 -105 -14 -38 -6 -92 -14 -120
-20 -27 -5 -66 -11 -85 -14 -117 -17 -341 -68 -560 -128 -374 -102 -710 -269
-710 -353 0 -13 4 -26 9 -30 5 -3 -1 -32 -15 -65 -13 -33 -24 -72 -24 -87 0
-16 -4 -34 -9 -41 -11 -18 -39 42 -51 111 -5 28 -19 101 -30 161 -11 60 -20
145 -20 189 0 119 -54 367 -145 672 -40 131 -87 349 -110 498 -8 60 -22 138
-29 175 -23 113 -73 531 -100 847 -35 396 -40 750 -12 865 9 41 26 131 36 200
29 185 67 391 84 451 9 30 31 142 50 249 85 476 209 868 407 1288 23 48 59
128 81 177 79 178 99 220 122 250 12 16 46 74 75 128 30 55 77 125 105 156 28
32 90 119 138 194 87 135 143 214 238 337 27 36 62 82 77 102 86 113 118 151
171 204 53 53 71 63 178 103 262 98 267 99 654 136 138 14 258 28 280 34 3 1
113 -10 245 -24z m-3211 -4985 c33 -12 64 -62 72 -117 5 -32 1 -53 -16 -88
-23 -47 -80 -95 -113 -95 -57 0 -117 78 -117 151 1 39 20 97 44 134 13 20 25
25 61 25 24 0 55 -4 69 -10z m5445 -1070 c10 -19 22 -45 25 -57 7 -21 4 -23
-31 -23 -22 0 -44 -5 -50 -11 -26 -26 -31 3 -11 64 11 34 22 69 24 77 6 17 12
10 43 -50z m-5756 -91 c32 -17 37 -28 37 -87 0 -68 -21 -117 -59 -136 -42 -22
-58 -20 -91 12 -41 41 -57 106 -36 149 28 59 99 88 149 62z m-277 -583 c40
-40 44 -75 14 -123 -24 -40 -62 -66 -92 -61 -35 5 -68 62 -68 118 0 99 78 134
146 66z m5694 -403 c6 -32 23 -80 36 -107 14 -26 23 -50 21 -52 -2 -2 -19 17
-37 42 -18 25 -48 62 -67 81 -28 27 -34 39 -29 59 6 22 9 24 22 13 13 -11 18
-10 25 4 6 9 12 17 14 17 2 0 9 -26 15 -57z m-3116 -70 c-37 -57 -117 -220
-141 -288 -33 -96 -39 -187 -19 -313 18 -112 97 -383 146 -502 17 -41 27 -70
22 -65 -33 37 -166 223 -204 285 -24 41 -72 118 -106 172 -150 235 -170 401
-71 586 16 30 29 61 29 68 0 25 76 48 235 70 137 18 131 19 109 -13z m2119 12
c135 -18 227 -43 234 -64 2 -9 19 -47 37 -86 95 -200 65 -365 -113 -630 -26
-38 -66 -101 -88 -140 -35 -59 -193 -275 -193 -263 0 2 15 39 33 83 75 179
157 509 157 631 0 68 -31 167 -91 292 -32 68 -67 136 -79 152 -21 30 -25 40
-12 40 4 0 55 -7 115 -15z m788 -182 c13 -15 12 -15 -11 -3 -34 17 -36 20 -18
20 9 0 22 -7 29 -17z m-3831 -18 c-33 -19 -46 -19 -30 0 7 8 22 15 34 15 20
-1 20 -2 -4 -15z m230 -25 c-64 -125 -65 -304 -5 -462 28 -73 -128 103 -181
204 -34 66 -36 75 -30 132 3 33 12 66 19 72 12 12 195 93 210 94 4 0 -2 -18
-13 -40z m3486 -3 c55 -23 104 -46 111 -50 6 -4 15 -32 19 -63 8 -65 -7 -111
-63 -196 -37 -55 -142 -172 -149 -165 -2 1 8 43 21 92 38 138 30 257 -25 382
-10 24 -17 43 -16 43 2 0 48 -19 102 -43z m-435 -639 c-9 -25 -41 -57 -41 -42
0 14 41 77 46 72 2 -3 0 -16 -5 -30z m-3561 -188 c0 -5 -2 -10 -4 -10 -3 0 -8
5 -11 10 -3 6 -1 10 4 10 6 0 11 -4 11 -10z m4376 -177 c-10 -10 -19 5 -10 18
6 11 8 11 12 0 2 -7 1 -15 -2 -18z m-4184 -292 c37 -98 29 -125 -130 -443
-110 -220 -147 -305 -168 -383 -14 -55 -35 -118 -45 -140 -35 -78 -116 -312
-148 -430 -18 -66 -41 -151 -53 -190 -11 -38 -28 -101 -38 -140 -21 -77 -70
-441 -70 -520 0 -27 -4 -68 -9 -90 -5 -22 -12 -65 -15 -95 -3 -30 -13 -104
-22 -165 -18 -119 -15 -418 5 -545 5 -36 20 -137 31 -225 25 -185 61 -349 83
-373 8 -9 22 -32 32 -50 9 -19 72 -93 140 -166 104 -111 139 -140 220 -189
142 -85 360 -153 589 -183 157 -21 447 -14 586 15 52 10 201 40 330 65 129 25
273 55 320 66 267 61 409 68 595 33 211 -41 571 -114 685 -138 185 -41 306
-55 460 -55 223 0 351 19 603 92 126 36 153 48 242 106 72 47 134 99 218 186
109 111 116 117 91 71 -42 -76 -132 -189 -236 -296 -136 -140 -221 -187 -513
-284 -73 -24 -217 -38 -510 -50 -77 -3 -162 -8 -190 -11 -27 -3 -165 -1 -305
6 -140 6 -302 13 -360 16 -96 4 -204 12 -605 47 -157 13 -538 12 -720 -4 -66
-5 -176 -14 -245 -20 -187 -15 -535 -13 -675 4 -241 30 -484 136 -651 282 -80
69 -193 192 -221 240 -82 137 -131 244 -153 330 -25 99 -24 190 6 430 8 66 19
197 24 290 14 271 51 577 100 830 65 339 86 423 154 629 31 93 70 219 86 280
56 210 71 261 116 406 25 80 65 188 89 240 92 205 114 293 145 580 7 58 13
114 15 125 2 11 4 25 4 30 2 15 90 -152 113 -214z m4250 -366 c39 -121 89
-263 111 -315 21 -52 51 -131 67 -175 16 -44 47 -123 70 -175 64 -147 136
-338 154 -410 9 -36 25 -87 36 -115 11 -27 33 -106 49 -175 16 -69 48 -192 71
-275 23 -84 47 -205 55 -275 16 -132 22 -454 10 -555 -13 -115 -57 -291 -115
-470 -33 -99 -71 -216 -85 -260 -13 -44 -23 -69 -20 -55 45 224 88 609 89 795
1 120 -5 195 -31 377 -18 125 -33 244 -33 265 0 90 -60 471 -83 534 -13 35
-32 98 -41 139 -33 146 -90 320 -177 540 -16 41 -40 116 -53 166 -18 66 -62
165 -159 360 -74 148 -140 291 -147 317 -15 56 -7 93 43 196 l31 63 43 -138
c24 -77 76 -238 115 -359z m-3576 -2563 c1 -232 78 -472 238 -747 33 -55 74
-127 93 -160 19 -33 45 -74 58 -91 24 -31 24 -32 6 -49 -15 -12 -50 -19 -143
-25 -200 -15 -190 -17 -215 33 -60 118 -114 240 -135 307 -21 69 -23 93 -23
280 1 191 3 212 27 300 23 81 87 270 91 270 1 0 2 -53 3 -118z m2744 -39 c59
-180 73 -277 67 -463 -5 -173 -23 -253 -82 -370 -18 -36 -48 -98 -66 -138
l-33 -73 -135 6 c-139 7 -205 18 -216 35 -4 6 15 44 42 84 253 391 363 678
363 954 0 80 3 112 10 102 6 -8 28 -70 50 -137z m-3438 -529 c-7 -126 37 -299
104 -409 19 -32 32 -60 30 -62 -7 -8 -169 45 -195 63 -23 17 -23 19 -18 138 6
122 21 198 59 294 11 28 21 52 22 52 1 0 0 -34 -2 -76z m4129 -89 c11 -44 23
-130 26 -191 l6 -111 -34 -20 c-32 -20 -177 -68 -184 -61 -2 2 18 47 45 101
63 128 84 215 85 345 l0 102 18 -42 c10 -24 27 -79 38 -123z m-766 -646 c88
-6 162 -13 165 -16 10 -11 -327 7 -395 22 l-70 14 70 -4 c39 -3 142 -10 230
-16z"/>
<path d="M8555 15616 l-27 -25 29 -6 c15 -4 36 -9 45 -11 9 -3 33 -23 52 -44
20 -22 45 -40 56 -40 12 0 32 -11 44 -24 13 -12 31 -26 40 -29 9 -4 25 -27 36
-52 11 -25 23 -45 27 -46 30 -3 57 -11 81 -26 85 -52 129 -83 147 -103 11 -12
43 -37 70 -56 28 -18 59 -47 70 -64 11 -16 42 -49 69 -72 105 -91 148 -133
182 -180 43 -57 69 -75 89 -58 11 9 21 2 47 -36 50 -72 67 -87 94 -81 20 3 31
-3 52 -32 34 -45 41 -51 72 -51 14 0 31 -9 37 -20 7 -11 27 -27 44 -36 18 -9
41 -25 53 -35 11 -11 30 -18 41 -17 13 2 27 -7 40 -27 11 -16 31 -35 43 -41
12 -6 35 -29 52 -52 17 -23 36 -42 44 -42 7 0 21 -9 31 -20 21 -23 35 -26 35
-7 0 20 21 36 37 30 8 -3 19 -16 24 -29 10 -28 59 -33 79 -9 7 8 19 15 26 15
8 0 14 4 14 9 0 15 32 22 46 10 7 -6 14 -20 16 -32 3 -20 7 -18 51 23 40 36
55 44 82 42 29 -3 39 4 86 57 39 44 60 61 79 61 36 0 43 8 74 80 33 78 51 100
82 100 13 0 26 4 29 10 13 21 113 80 127 75 9 -4 25 9 43 35 35 50 90 100 111
100 9 0 27 9 41 20 14 11 36 20 48 20 15 0 36 16 59 45 21 25 48 48 61 51 13
3 36 21 50 40 26 35 123 104 145 104 6 0 26 12 43 26 22 18 39 25 60 21 25 -3
37 5 94 68 36 40 89 88 119 106 29 19 52 39 50 44 -1 6 -23 11 -47 12 -24 0
-54 4 -65 8 -16 5 -31 -2 -57 -24 -19 -17 -42 -31 -51 -31 -9 0 -39 -21 -67
-47 l-50 -47 -30 18 c-37 22 -75 10 -108 -35 -12 -16 -38 -37 -59 -48 -32 -16
-40 -17 -56 -5 -24 17 -45 6 -77 -40 -13 -20 -31 -36 -40 -36 -9 0 -28 -15
-42 -34 -21 -27 -31 -32 -52 -28 -17 3 -33 -2 -45 -14 -11 -11 -34 -30 -50
-44 -17 -14 -53 -46 -79 -72 -42 -42 -52 -47 -79 -42 -28 6 -34 2 -75 -56 -45
-61 -156 -170 -175 -170 -5 0 -15 -7 -22 -15 -7 -8 -23 -15 -35 -15 -13 0 -44
-19 -71 -43 -58 -52 -87 -69 -107 -62 -7 3 -24 -3 -38 -13 -17 -15 -29 -18
-46 -11 -15 5 -32 4 -48 -3 -19 -9 -28 -9 -37 0 -7 7 -20 12 -29 12 -9 0 -24
11 -33 25 -9 14 -23 25 -31 25 -8 0 -26 18 -40 40 -14 22 -30 41 -35 41 -6 1
-14 2 -20 3 -5 0 -15 10 -23 20 -10 13 -22 17 -40 14 -24 -5 -30 1 -57 48 -27
49 -39 58 -76 57 -6 0 -19 13 -30 28 -18 28 -30 33 -64 31 -8 0 -30 22 -48 49
-35 54 -72 75 -101 59 -16 -8 -25 0 -60 49 -47 68 -94 111 -121 111 -10 0 -39
24 -65 54 -44 52 -49 55 -90 53 -40 -2 -45 0 -60 32 -16 34 -29 37 -76 17 -12
-5 -20 1 -28 21 -20 47 -56 84 -84 87 -15 1 -33 11 -40 20 -7 10 -27 19 -43
20 -19 1 -47 15 -74 39 -34 29 -50 36 -70 32 -21 -5 -39 7 -109 71 -66 60 -88
74 -105 69 -26 -8 -36 -8 -62 0 -15 5 -29 -1 -49 -19z"/>
<path d="M8716 14617 c-22 -16 -32 -66 -46 -227 -15 -181 13 -471 71 -717 24
-105 51 -192 96 -313 86 -227 151 -311 259 -331 85 -16 273 39 521 152 95 44
178 79 185 79 21 0 150 76 184 108 41 37 64 82 70 136 9 67 -54 191 -168 336
-50 64 -89 99 -238 221 -41 34 -106 89 -143 123 -121 108 -252 199 -404 282
-309 168 -344 182 -387 151z m151 -140 c248 -121 390 -217 675 -455 241 -201
268 -229 357 -377 49 -82 56 -103 47 -150 -6 -30 -18 -43 -74 -80 -37 -24 -87
-49 -112 -56 -25 -7 -103 -41 -175 -75 -153 -74 -355 -144 -437 -152 -58 -5
-59 -5 -96 36 -41 45 -54 69 -105 192 -80 192 -146 469 -168 697 -19 198 -21
463 -4 463 2 0 43 -19 92 -43z"/>
<path d="M9087 14081 c-58 -62 -72 -109 -71 -241 0 -85 7 -130 33 -235 57
-222 100 -315 156 -329 68 -17 161 42 201 129 32 67 33 207 4 318 -11 43 -29
111 -40 153 -33 126 -88 208 -162 239 -57 23 -71 19 -121 -34z"/>
<path d="M11790 14590 c-41 -22 -78 -40 -81 -40 -4 0 -71 -36 -149 -80 -163
-92 -296 -183 -390 -267 -145 -128 -203 -179 -225 -193 -54 -36 -138 -118
-183 -179 -111 -150 -162 -249 -162 -315 0 -55 43 -129 96 -168 52 -38 132
-80 174 -93 14 -4 95 -39 180 -78 313 -142 501 -180 589 -118 125 89 265 462
326 869 23 155 31 439 15 557 -21 156 -56 175 -190 105z m103 -187 c6 -110 0
-218 -24 -423 -40 -345 -194 -789 -292 -841 -55 -30 -273 33 -520 151 -57 26
-129 58 -162 69 -84 30 -164 85 -180 125 -18 42 -8 79 42 161 80 131 137 195
274 306 37 30 101 82 142 116 42 35 86 71 98 80 12 10 29 25 38 33 53 49 196
148 251 173 36 16 78 39 94 50 27 19 214 115 227 116 3 1 9 -52 12 -116z"/>
<path d="M11428 14079 c-29 -16 -107 -133 -134 -199 -42 -105 -58 -446 -24
-535 18 -48 49 -75 86 -75 105 0 170 79 218 262 64 247 60 465 -9 534 -19 19
-35 24 -72 24 -26 0 -56 -5 -65 -11z"/>
<path d="M9573 12631 c-217 -79 -391 -273 -454 -508 -11 -43 -29 -103 -40
-135 -31 -90 -49 -187 -49 -273 0 -116 19 -301 37 -354 17 -52 92 -183 126
-221 51 -58 207 -133 321 -155 103 -20 153 -16 301 20 147 37 198 40 312 20
114 -21 292 -24 375 -6 98 21 221 17 338 -12 157 -38 185 -40 295 -22 79 13
119 27 190 63 113 58 152 93 204 184 63 108 78 165 92 335 13 174 5 259 -41
413 -15 52 -37 127 -49 165 -23 80 -113 242 -159 290 -36 36 -91 57 -116 43
-21 -12 -20 -31 3 -52 27 -24 124 -191 145 -246 36 -99 89 -300 100 -380 13
-93 13 -99 -3 -275 -9 -111 -13 -126 -52 -202 -51 -99 -71 -119 -169 -171
-126 -67 -251 -79 -410 -37 -132 35 -234 41 -366 22 -140 -20 -225 -20 -349 0
-125 20 -245 13 -375 -22 -157 -41 -275 -30 -400 37 -91 48 -103 59 -146 125
-55 86 -64 119 -79 285 -16 182 -11 240 36 403 58 203 71 239 104 296 42 73
158 189 227 228 46 27 63 31 127 31 40 0 90 -4 110 -10 20 -5 85 -21 144 -35
59 -15 141 -37 181 -50 168 -53 308 -51 521 10 307 88 395 99 560 70 53 -9 92
-12 97 -7 14 14 -59 69 -115 88 -96 32 -196 33 -341 3 -72 -15 -172 -39 -223
-53 -86 -24 -239 -48 -255 -39 -4 2 -58 16 -120 32 -62 16 -153 43 -201 60
-98 34 -242 61 -327 61 -30 -1 -78 -9 -107 -19z"/>
<path d="M9591 12115 c-29 -25 -52 -78 -67 -160 -4 -22 -8 -44 -9 -50 -27
-120 -28 -163 -6 -280 23 -121 40 -169 64 -178 8 -3 31 -2 52 3 93 21 145 171
145 423 0 103 -1 110 -35 177 -48 96 -86 113 -144 65z m77 -232 c4 -120 -7
-220 -29 -291 -13 -39 -29 -33 -29 11 0 18 -9 47 -21 66 -24 40 -22 61 17 235
28 124 32 132 48 116 7 -6 12 -60 14 -137z"/>
<path d="M10968 12123 c-52 -33 -72 -93 -76 -231 -7 -212 39 -402 107 -436 77
-40 112 -9 142 125 27 125 27 211 -1 344 -22 109 -45 170 -73 193 -25 21 -70
23 -99 5z m86 -223 c30 -130 33 -195 11 -237 -8 -15 -17 -46 -21 -68 -5 -32
-8 -36 -15 -22 -46 81 -55 501 -10 451 5 -5 20 -61 35 -124z"/>
<path d="M13182 14298 c-7 -7 -12 -29 -12 -49 0 -21 -5 -50 -11 -66 -5 -15
-14 -88 -19 -162 -8 -119 -7 -137 7 -153 19 -21 46 -23 61 -5 11 12 24 124 37
313 7 98 -2 134 -33 134 -10 0 -23 -5 -30 -12z"/>
<path d="M7211 14264 c-105 -45 -158 -128 -148 -234 7 -76 30 -116 92 -158 42
-28 57 -33 91 -29 167 18 275 211 193 345 -41 69 -156 108 -228 76z m142 -115
c33 -36 34 -70 5 -129 -17 -33 -36 -52 -69 -69 l-46 -24 -46 22 c-50 24 -54
35 -48 121 3 40 12 53 66 92 50 36 96 32 138 -13z"/>
<path d="M13642 14271 c-71 -12 -134 -75 -148 -148 -10 -52 13 -137 49 -185
38 -49 126 -98 176 -98 50 0 130 54 154 102 28 57 33 139 13 193 -19 49 -78
104 -139 130 -39 16 -40 16 -105 6z m106 -111 c52 -38 62 -57 62 -122 0 -62
-3 -67 -51 -91 -46 -24 -80 -15 -129 32 -75 71 -63 178 23 203 40 11 54 8 95
-22z"/>
<path d="M13154 13686 c-55 -25 -100 -97 -115 -184 -17 -102 21 -210 84 -240
21 -10 40 -11 84 -3 49 9 64 17 94 51 109 119 58 371 -77 386 -22 2 -53 -2
-70 -10z m97 -116 c24 -44 27 -140 4 -140 -8 0 -26 -18 -41 -39 -32 -49 -50
-57 -68 -28 -38 59 -26 164 25 218 35 37 56 35 80 -11z"/>
<path d="M7246 13558 c-14 -63 -25 -280 -16 -299 12 -21 52 -26 68 -6 13 16
24 230 14 282 -6 34 -11 40 -34 43 -22 3 -28 -2 -32 -20z"/>
<path d="M13652 13563 c-12 -31 -6 -291 8 -308 19 -23 59 -19 69 8 10 28 -8
287 -22 305 -14 18 -46 15 -55 -5z"/>
<path d="M6899 13568 c-6 -20 -11 -68 -21 -194 -11 -139 -10 -154 5 -178 19
-28 45 -34 65 -14 15 15 17 340 2 369 -9 15 -47 28 -51 17z"/>
<path d="M14011 13551 c-7 -12 -11 -88 -11 -189 0 -179 5 -198 47 -190 39 7
46 49 33 206 -7 81 -13 156 -14 167 -3 28 -42 32 -55 6z"/>
<path d="M13107 12996 c-46 -17 -61 -30 -86 -70 -43 -71 -30 -224 21 -261 61
-42 160 -21 199 42 41 66 36 218 -9 272 -22 28 -77 35 -125 17z m71 -150 c3
-79 -13 -116 -52 -116 -50 0 -56 8 -56 72 0 53 3 63 30 89 19 20 38 29 52 27
21 -3 23 -9 26 -72z"/>
<path d="M6905 12980 c10 -11 23 -20 28 -20 6 0 2 9 -8 20 -10 11 -23 20 -28
20 -6 0 -2 -9 8 -20z"/>
<path d="M7123 12993 c-12 -2 -45 -24 -72 -49 -62 -56 -87 -114 -77 -181 4
-27 9 -65 12 -86 10 -86 60 -138 136 -144 87 -7 169 41 221 130 62 106 55 193
-23 269 -61 59 -117 76 -197 61z m119 -108 c26 -17 41 -38 49 -65 11 -36 9
-44 -17 -95 -32 -65 -69 -95 -123 -102 -41 -6 -45 -3 -86 60 -42 64 -28 136
39 195 45 40 87 42 138 7z"/>
<path d="M13725 12989 c-40 -11 -111 -72 -132 -113 -24 -47 -22 -132 6 -184
57 -110 146 -169 241 -160 75 7 117 51 131 138 4 25 11 63 14 85 10 56 -8 114
-52 164 -59 69 -130 93 -208 70z m140 -123 c65 -67 71 -127 21 -196 -39 -54
-80 -63 -133 -31 -36 22 -93 114 -93 149 0 59 66 122 129 122 28 0 43 -9 76
-44z"/>
<path d="M14035 12980 c-10 -11 -14 -20 -8 -20 5 0 18 9 28 20 10 11 14 20 8
20 -5 0 -18 -9 -28 -20z"/>
<path d="M13425 12930 c-9 -17 -23 -84 -30 -148 -8 -64 -17 -129 -20 -143 -4
-17 0 -32 10 -43 20 -19 26 -20 49 -3 13 9 22 47 37 147 24 167 23 214 -8 218
-16 2 -26 -5 -38 -28z"/>
<path d="M6583 12880 c-134 -60 -113 -280 32 -336 56 -21 105 -14 151 21 52
40 77 97 72 166 -10 134 -131 206 -255 149z m142 -96 c55 -59 12 -168 -63
-162 -48 4 -77 44 -77 105 0 35 5 49 24 64 34 28 87 25 116 -7z"/>
<path d="M14210 12878 c-122 -63 -120 -253 4 -329 102 -62 249 40 250 174 2
102 -70 177 -169 177 -23 0 -61 -10 -85 -22z m137 -83 c35 -24 39 -76 11 -127
-19 -36 -29 -44 -57 -46 -83 -8 -127 116 -60 171 26 21 77 22 106 2z"/>
<path d="M5247 12848 c-6 -15 2 -362 9 -394 5 -26 29 -37 53 -24 16 8 19 31
25 189 7 154 5 183 -8 210 -13 24 -23 31 -45 31 -16 0 -32 -6 -34 -12z"/>
<path d="M15635 12834 c-15 -23 -16 -48 -11 -206 5 -177 11 -208 41 -208 6 0
19 8 27 18 12 13 17 56 21 209 3 131 1 195 -6 202 -19 19 -54 12 -72 -15z"/>
<path d="M5739 12827 c-96 -64 -104 -225 -16 -319 54 -57 141 -24 190 72 24
47 28 64 24 111 -5 59 -25 107 -58 140 -27 27 -96 26 -140 -4z m101 -97 c20
-48 7 -110 -30 -142 -16 -16 -34 -28 -39 -28 -14 0 -31 49 -31 91 0 91 72 147
100 79z"/>
<path d="M15087 12839 c-27 -16 -67 -108 -67 -155 0 -127 103 -233 194 -198 8
3 29 28 47 55 44 69 51 155 17 219 -32 58 -78 90 -132 90 -23 0 -49 -5 -59
-11z m98 -96 c21 -21 35 -57 35 -92 0 -36 -19 -91 -32 -91 -5 0 -25 15 -44 34
-27 27 -34 42 -34 75 0 78 36 114 75 74z"/>
<path d="M6203 12818 c-16 -21 -48 -327 -37 -346 15 -23 29 -25 46 -8 19 19
45 296 32 334 -11 30 -27 38 -41 20z"/>
<path d="M14722 12818 c-7 -7 -12 -36 -12 -65 0 -54 16 -230 25 -269 6 -29 35
-39 54 -20 13 14 13 33 -3 173 -10 87 -21 164 -25 172 -10 20 -24 24 -39 9z"/>
<path d="M4964 12760 l-27 -40 14 -156 c12 -129 17 -159 32 -168 12 -8 22 -8
35 0 15 10 17 30 16 192 -1 177 -7 212 -35 212 -5 0 -21 -18 -35 -40z"/>
<path d="M15939 12784 c-10 -13 -14 -60 -14 -197 0 -160 2 -181 18 -191 12 -8
22 -8 35 0 14 9 19 39 30 169 l13 157 -26 39 c-28 43 -36 47 -56 23z"/>
<path d="M1845 12575 c-5 -2 -22 -6 -38 -9 -47 -11 -67 -40 -67 -96 0 -63 19
-102 67 -135 43 -29 90 -32 133 -10 37 19 50 43 50 91 0 61 -34 120 -84 143
-23 12 -44 21 -47 20 -2 0 -8 -2 -14 -4z"/>
<path d="M19075 12572 c-75 -17 -132 -144 -95 -213 14 -26 62 -49 102 -49 41
0 102 40 123 80 18 35 19 119 2 141 -23 30 -89 51 -132 41z"/>
<path d="M13063 12284 c-29 -30 -33 -42 -33 -87 0 -29 -5 -98 -12 -154 -9 -82
-9 -105 1 -117 17 -20 45 -20 61 -2 15 20 62 297 58 350 -4 54 -31 58 -75 10z"/>
<path d="M13595 12285 c-54 -19 -99 -73 -119 -143 -23 -83 -20 -121 14 -189
31 -63 74 -103 135 -129 49 -20 89 -17 145 11 53 27 80 57 80 91 0 12 7 39 16
60 35 85 -9 252 -78 294 -40 24 -132 27 -193 5z m172 -120 c35 -63 40 -134 13
-190 -50 -103 -160 -93 -211 19 -25 54 -24 92 4 146 27 55 57 71 122 68 46 -3
51 -6 72 -43z"/>
<path d="M13317 12253 c-19 -36 -44 -330 -29 -345 17 -17 56 -4 69 23 8 17 14
84 15 185 3 157 3 159 -19 162 -16 2 -26 -5 -36 -25z"/>
<path d="M2385 12251 c-115 -53 -160 -115 -153 -212 8 -112 98 -208 202 -217
68 -5 110 23 151 103 62 122 29 250 -85 328 -31 22 -65 21 -115 -2z m87 -88
c28 -34 58 -94 58 -119 0 -30 -25 -92 -47 -116 -50 -55 -163 33 -163 128 0 45
18 68 85 103 48 25 48 25 67 4z"/>
<path d="M18459 12255 c-41 -22 -97 -98 -110 -148 -14 -57 -6 -116 25 -183 50
-107 134 -133 236 -71 104 62 149 190 101 286 -23 43 -94 97 -160 119 -43 15
-60 15 -92 -3z m101 -100 c27 -13 56 -35 64 -47 36 -51 8 -139 -56 -178 -60
-36 -91 -22 -123 53 -27 66 -19 102 44 180 18 21 12 22 71 -8z"/>
<path d="M3534 12226 c-18 -14 -19 -27 -17 -200 2 -108 7 -195 13 -206 6 -12
21 -20 36 -20 41 0 47 31 35 168 -6 66 -11 147 -11 181 0 41 -5 64 -16 75 -19
19 -16 19 -40 2z"/>
<path d="M3937 12233 c-4 -3 -7 -23 -7 -43 0 -21 -9 -104 -20 -186 -11 -82
-18 -159 -15 -171 6 -26 50 -42 68 -24 25 25 48 372 27 412 -10 19 -40 26 -53
12z"/>
<path d="M6450 12216 c-86 -58 -119 -161 -89 -271 16 -56 62 -120 98 -135 65
-26 158 16 202 93 20 36 24 55 24 132 0 78 -3 95 -24 129 -48 77 -141 100
-211 52z m125 -86 c12 -14 20 -41 23 -78 5 -77 -15 -126 -63 -149 l-35 -17
-35 34 c-29 28 -35 41 -35 76 0 112 90 195 145 134z"/>
<path d="M14350 12218 c-112 -75 -106 -307 9 -384 51 -33 117 -40 156 -16 45
28 85 109 92 186 5 58 3 71 -21 121 -36 72 -82 107 -149 113 -42 3 -59 -1 -87
-20z m132 -95 c34 -35 48 -73 48 -127 0 -35 -6 -48 -34 -75 -30 -29 -38 -32
-63 -24 -46 16 -73 66 -73 138 0 48 5 68 21 89 27 35 67 34 101 -1z"/>
<path d="M16972 12228 c-24 -24 -4 -388 23 -417 17 -17 60 -7 69 15 4 9 -3 85
-13 168 -11 83 -22 171 -23 196 -2 36 -7 46 -23 48 -11 1 -26 -3 -33 -10z"/>
<path d="M17386 12224 c-11 -10 -16 -33 -16 -67 0 -29 -5 -109 -11 -180 -14
-145 -7 -177 36 -177 17 0 28 7 34 23 12 31 24 316 16 361 -9 44 -36 63 -59
40z"/>
<path d="M3203 12218 c-11 -15 -26 -400 -17 -436 8 -27 48 -39 70 -21 13 11
15 41 12 214 -3 172 -6 205 -21 228 -19 30 -30 33 -44 15z"/>
<path d="M17722 12222 c-24 -16 -32 -79 -32 -262 0 -191 4 -210 41 -210 40 0
44 23 41 244 -4 225 -10 253 -50 228z"/>
<path d="M5772 12203 c-5 -10 -13 -58 -17 -108 -4 -49 -11 -110 -15 -134 -13
-71 16 -115 60 -91 24 13 43 143 38 260 -3 84 -3 85 -30 88 -18 2 -30 -3 -36
-15z"/>
<path d="M6904 12203 c-25 -25 -40 -68 -58 -162 -22 -113 -21 -148 4 -161 29
-16 58 4 65 43 14 83 34 281 29 288 -8 14 -21 11 -40 -8z"/>
<path d="M14015 12210 c-4 -6 -2 -41 4 -78 5 -37 13 -102 17 -145 8 -96 28
-128 68 -109 31 14 33 39 11 157 -20 103 -30 134 -57 162 -24 25 -34 28 -43
13z"/>
<path d="M15123 12204 c-7 -18 3 -255 13 -297 8 -36 37 -52 65 -36 20 11 21
16 15 93 -13 149 -23 233 -30 245 -11 17 -56 13 -63 -5z"/>
<path d="M4891 12200 c-73 -17 -104 -82 -90 -187 9 -64 40 -118 81 -139 43
-22 141 -5 179 32 35 34 51 101 38 167 -20 108 -95 154 -208 127z m104 -104
c9 -13 18 -40 22 -59 4 -29 1 -40 -20 -61 -15 -14 -35 -26 -46 -26 -11 0 -26
-2 -33 -5 -21 -8 -38 37 -38 101 0 47 3 56 23 64 41 16 76 11 92 -14z"/>
<path d="M15944 12196 c-61 -27 -102 -120 -89 -205 10 -69 62 -116 137 -124
71 -9 99 3 135 57 23 35 28 54 31 122 4 78 3 83 -25 113 -42 47 -127 64 -189
37z m127 -98 c13 -19 11 -103 -3 -133 -7 -16 -17 -24 -26 -20 -7 3 -22 5 -33
5 -11 0 -32 12 -46 26 -21 21 -25 32 -20 66 8 58 33 81 81 75 21 -3 43 -11 47
-19z"/>
<path d="M4402 12172 c-57 -36 -97 -114 -90 -175 7 -54 55 -155 81 -168 30
-17 80 -13 123 9 129 66 152 216 49 319 -53 53 -97 57 -163 15z m107 -81 c28
-28 38 -88 20 -119 -22 -40 -67 -68 -86 -56 -24 15 -47 86 -39 118 7 30 51 76
72 76 8 0 23 -9 33 -19z"/>
<path d="M16418 12183 c-43 -30 -68 -69 -80 -125 -14 -69 -5 -115 33 -161 54
-65 144 -97 196 -69 11 6 34 43 52 82 28 61 32 79 27 118 -8 57 -31 96 -78
135 -47 37 -111 46 -150 20z m105 -97 c37 -34 44 -84 18 -135 -12 -22 -28 -41
-36 -41 -8 0 -30 14 -50 31 -28 25 -35 38 -35 68 0 44 33 101 58 101 11 0 31
-11 45 -24z"/>
<path d="M5383 12180 c-49 -11 -81 -36 -103 -80 -37 -72 -20 -222 29 -262 55
-44 154 -11 198 67 29 51 33 181 6 225 -26 44 -75 63 -130 50z m47 -90 c22
-13 19 -109 -4 -144 -20 -32 -56 -48 -73 -34 -8 6 -13 34 -13 70 0 52 3 63 29
89 32 32 38 34 61 19z"/>
<path d="M15502 12178 c-61 -17 -92 -104 -72 -208 17 -91 78 -150 154 -150 56
0 80 20 100 79 55 170 -41 318 -182 279z m84 -101 c22 -19 28 -34 32 -79 2
-31 -1 -64 -7 -76 -10 -18 -15 -20 -40 -11 -51 18 -82 137 -45 173 21 21 28
20 60 -7z"/>
<path d="M1987 12166 c-12 -12 -14 -44 -9 -178 5 -183 16 -228 55 -228 14 0
29 6 35 13 10 12 -1 290 -14 352 -11 53 -38 70 -67 41z"/>
<path d="M2827 12166 c-3 -8 -2 -28 2 -44 5 -16 6 -87 4 -158 -5 -123 -5 -130
16 -149 28 -24 53 -11 62 31 9 39 10 210 3 256 -10 60 -71 105 -87 64z"/>
<path d="M6110 12154 c-6 -14 -10 -32 -10 -40 0 -8 -9 -47 -20 -86 -32 -116
-25 -158 27 -158 29 0 34 13 63 150 17 81 19 111 11 133 -14 37 -57 38 -71 1z"/>
<path d="M14779 12153 c-8 -20 -7 -43 2 -83 6 -30 17 -82 23 -115 13 -73 21
-85 50 -85 54 0 57 35 17 195 -26 104 -29 110 -54 113 -22 3 -29 -2 -38 -25z"/>
<path d="M18063 12153 c-14 -22 -19 -53 -21 -158 -4 -133 5 -180 33 -191 9 -4
25 2 36 12 20 18 21 26 14 149 -4 87 -3 140 4 159 21 55 -34 79 -66 29z"/>
<path d="M18922 12168 c-18 -24 -22 -54 -31 -219 -10 -175 -7 -189 36 -189 40
0 51 45 54 227 3 123 0 165 -10 177 -16 19 -35 21 -49 4z"/>
<path d="M1565 11915 c-30 -29 -32 -65 -5 -122 29 -65 104 -100 165 -77 41 16
58 109 30 164 -23 44 -53 60 -113 60 -43 0 -58 -5 -77 -25z"/>
<path d="M19242 11924 c-56 -39 -71 -146 -27 -189 28 -29 80 -33 125 -10 68
35 100 157 51 196 -29 24 -116 26 -149 3z"/>
<path d="M12958 11707 c-26 -21 -27 -27 -37 -166 -11 -155 -5 -192 33 -199 30
-6 46 26 46 91 0 33 7 102 16 154 23 133 4 172 -58 120z"/>
<path d="M13270 11719 c-62 -25 -87 -70 -96 -176 -6 -69 -4 -84 15 -121 34
-66 81 -79 163 -43 84 36 118 101 118 224 0 64 -2 71 -31 98 -27 25 -39 29
-88 28 -31 0 -67 -5 -81 -10z m110 -84 c15 -19 7 -92 -15 -135 -24 -47 -106
-54 -120 -10 -11 35 6 112 31 137 27 27 85 31 104 8z"/>
<path d="M13589 11663 c-18 -21 -19 -334 -1 -375 12 -30 51 -38 70 -15 15 18
-1 371 -18 392 -16 20 -34 19 -51 -2z"/>
<path d="M2510 11644 c-103 -40 -153 -157 -119 -279 7 -25 29 -58 59 -87 42
-43 52 -48 92 -48 58 0 88 24 118 92 44 99 24 235 -42 296 -25 23 -80 36 -108
26z m62 -115 c31 -42 34 -108 7 -167 -13 -28 -29 -52 -35 -52 -13 0 -47 36
-63 67 -14 28 -14 98 0 126 14 27 50 58 63 54 6 -2 18 -14 28 -28z"/>
<path d="M3892 11633 c-15 -38 2 -377 21 -400 17 -23 56 -15 69 12 9 20 7 61
-11 193 -12 92 -26 177 -31 190 -11 26 -38 29 -48 5z"/>
<path d="M4175 11634 c-22 -23 -22 -329 1 -362 18 -26 46 -29 64 -7 11 13 11
48 1 180 -6 90 -14 171 -17 179 -8 22 -32 27 -49 10z"/>
<path d="M4576 11636 c-22 -8 -58 -33 -80 -55 -37 -37 -40 -45 -44 -105 -4
-57 -1 -71 22 -110 14 -25 41 -61 60 -80 29 -32 39 -36 81 -36 43 0 52 4 85
39 38 40 70 113 70 161 0 52 -29 125 -63 158 -39 38 -79 47 -131 28z m82 -106
c22 -36 25 -102 5 -139 -26 -50 -47 -60 -73 -36 -25 23 -44 57 -54 97 -10 42
62 116 99 101 6 -2 16 -12 23 -23z"/>
<path d="M16300 11643 c-35 -13 -81 -70 -95 -117 -21 -69 -19 -113 9 -171 32
-70 76 -105 131 -105 49 0 86 29 137 109 69 110 13 245 -117 280 -44 12 -43
12 -65 4z m93 -121 c34 -32 36 -80 6 -128 -39 -64 -72 -65 -105 -3 -34 67 3
180 54 162 10 -3 29 -17 45 -31z"/>
<path d="M16746 11637 c-23 -17 -46 -348 -26 -372 16 -19 44 -19 60 0 14 17
27 304 16 348 -7 30 -28 40 -50 24z"/>
<path d="M17016 11628 c-3 -13 -15 -96 -28 -185 -26 -187 -22 -218 27 -218 38
0 41 11 54 200 12 171 6 218 -27 223 -16 2 -23 -3 -26 -20z"/>
<path d="M18347 11621 c-75 -66 -96 -209 -44 -308 33 -64 59 -83 114 -83 48 0
96 34 135 98 33 53 33 170 0 227 -28 50 -78 85 -130 92 -33 4 -44 1 -75 -26z
m106 -85 c29 -27 42 -80 33 -130 -6 -33 -54 -96 -73 -96 -12 0 -53 95 -53 122
0 55 34 128 59 128 5 0 20 -11 34 -24z"/>
<path d="M5655 11628 c-2 -7 -8 -68 -14 -135 -19 -208 -14 -243 31 -243 35 0
46 39 53 190 8 165 1 200 -40 200 -14 0 -27 -6 -30 -12z"/>
<path d="M15239 11618 c-18 -34 -3 -327 18 -350 37 -42 73 -14 73 56 0 49 -18
249 -26 294 -6 30 -49 30 -65 0z"/>
<path d="M5300 11619 c-85 -34 -118 -121 -88 -234 17 -65 48 -90 107 -89 89 1
140 59 149 169 10 124 -67 194 -168 154z m78 -125 c4 -53 -12 -92 -44 -106
-23 -11 -28 -10 -40 7 -37 50 1 149 55 143 23 -3 26 -8 29 -44z"/>
<path d="M15544 11611 c-81 -50 -69 -231 19 -295 40 -30 117 -29 149 1 27 26
48 94 48 157 0 109 -130 192 -216 137z m115 -97 c36 -45 23 -134 -19 -134 -32
0 -60 47 -60 100 0 26 3 50 7 53 15 16 53 5 72 -19z"/>
<path d="M5005 11599 c-4 -6 -13 -76 -21 -157 -13 -140 -13 -147 5 -165 26
-27 57 -14 72 30 14 45 3 237 -17 276 -15 29 -28 34 -39 16z"/>
<path d="M6017 11595 c-14 -14 -30 -126 -31 -224 -1 -61 19 -85 52 -65 30 19
55 230 32 273 -13 26 -37 33 -53 16z"/>
<path d="M15919 11594 c-17 -20 -34 -205 -25 -267 6 -38 13 -50 33 -60 22 -10
28 -8 45 13 14 18 18 32 13 55 -3 16 -10 80 -14 141 -10 135 -20 157 -52 118z"/>
<path d="M2947 11590 c-73 -13 -114 -67 -101 -130 9 -41 56 -152 80 -189 52
-78 128 -93 190 -39 41 36 64 82 64 127 0 155 -101 255 -233 231z m90 -100
c33 -20 53 -66 53 -127 0 -34 -7 -42 -58 -60 l-34 -11 -23 52 c-13 29 -29 72
-36 95 -12 40 -11 45 6 57 26 19 54 17 92 -6z"/>
<path d="M3395 11586 c-88 -39 -121 -165 -70 -266 91 -180 315 -147 315 46 0
157 -128 272 -245 220z m101 -91 c49 -34 72 -149 37 -187 -32 -36 -114 -13
-139 40 -43 91 31 197 102 147z"/>
<path d="M6316 11590 c-34 -11 -82 -54 -102 -92 -8 -15 -14 -45 -14 -68 0
-150 191 -208 251 -77 23 52 25 146 3 188 -8 17 -30 37 -49 45 -38 16 -47 16
-89 4z m62 -132 c5 -84 -30 -111 -83 -65 -23 19 -25 26 -16 48 12 32 59 71 80
67 11 -2 17 -17 19 -50z"/>
<path d="M14542 11580 c-40 -25 -52 -54 -52 -131 0 -72 27 -132 70 -154 100
-52 213 38 197 157 -14 105 -136 178 -215 128z m107 -96 c38 -32 42 -75 9 -98
-48 -34 -81 -7 -80 65 1 67 21 76 71 33z"/>
<path d="M14891 11581 c-21 -38 -5 -237 21 -269 14 -17 48 -12 61 9 10 17 -5
191 -21 249 -9 32 -47 39 -61 11z"/>
<path d="M17435 11582 c-45 -28 -93 -87 -104 -129 -18 -62 -13 -144 9 -181 72
-117 234 -84 301 63 37 80 13 190 -53 237 -42 30 -114 35 -153 10z m122 -111
c39 -59 22 -135 -37 -166 -65 -34 -110 -8 -110 62 0 121 92 186 147 104z"/>
<path d="M17916 11585 c-43 -15 -91 -56 -112 -97 -21 -40 -29 -138 -15 -181
18 -53 82 -107 128 -107 61 0 99 34 145 130 44 90 59 170 39 208 -24 46 -120
70 -185 47z m100 -89 c19 -14 19 -16 1 -68 -10 -29 -27 -72 -38 -94 -19 -41
-20 -41 -52 -30 -51 18 -57 25 -57 65 0 57 19 101 54 122 37 23 65 24 92 5z"/>
<path d="M6857 11576 c-59 -22 -115 -63 -134 -98 -25 -49 -22 -134 8 -187 29
-53 63 -71 129 -71 104 0 179 71 188 176 11 134 -80 220 -191 180z m83 -96
c22 -22 26 -72 10 -114 -12 -33 -66 -66 -106 -66 -35 0 -54 29 -54 83 0 43 24
75 74 98 51 23 52 23 76 -1z"/>
<path d="M14015 11583 c-64 -17 -105 -81 -105 -165 1 -71 28 -129 81 -167 36
-27 51 -31 106 -31 58 0 66 3 99 33 63 57 76 179 27 245 -39 52 -154 99 -208
85z m103 -115 c52 -32 64 -71 41 -138 -11 -31 -13 -32 -58 -27 -63 7 -101 49
-101 112 0 32 6 51 21 66 22 22 43 20 97 -13z"/>
<path d="M2179 11558 c-13 -25 -3 -322 12 -350 12 -22 52 -24 68 -4 16 19 0
320 -18 354 -15 28 -47 28 -62 0z"/>
<path d="M18720 11565 c-14 -17 -36 -309 -26 -349 5 -21 12 -26 36 -26 18 0
33 7 38 18 15 27 25 312 13 345 -12 30 -41 36 -61 12z"/>
<path d="M1558 11384 c-36 -19 -48 -43 -48 -95 0 -35 6 -47 39 -80 36 -37 42
-39 98 -39 49 0 63 4 81 23 28 30 30 99 3 143 -34 56 -117 79 -173 48z"/>
<path d="M19273 11380 c-51 -31 -78 -97 -62 -155 12 -42 33 -55 94 -55 84 0
145 51 145 122 0 50 -13 74 -50 93 -40 20 -89 19 -127 -5z"/>
<path d="M13373 11200 c-48 -11 -80 -36 -102 -78 -25 -49 -36 -138 -22 -188
25 -94 161 -164 238 -121 25 14 84 80 102 115 20 38 16 146 -6 184 -39 67
-132 106 -210 88z m118 -109 c22 -22 29 -39 29 -68 0 -78 -42 -111 -142 -112
-43 -1 -47 1 -57 29 -14 42 3 127 31 157 33 35 100 32 139 -6z"/>
<path d="M13905 11126 c-17 -7 -45 -30 -64 -51 l-33 -38 4 -91 c5 -121 30
-169 107 -208 64 -33 91 -34 148 -9 88 40 144 203 99 289 -50 95 -174 146
-261 108z m131 -97 c43 -26 54 -47 54 -101 0 -51 -29 -103 -65 -120 -21 -9
-32 -8 -61 5 -44 22 -64 66 -64 145 0 50 3 62 23 75 31 22 74 21 113 -4z"/>
<path d="M5638 11110 c-53 -10 -82 -33 -107 -86 -24 -51 -30 -149 -12 -197 17
-44 52 -85 84 -98 27 -11 32 -10 46 8 9 11 29 23 44 26 38 10 94 70 108 117
10 31 10 55 1 102 -18 97 -77 143 -164 128z m56 -95 c20 -21 31 -82 20 -113
-12 -32 -51 -60 -89 -64 -30 -3 -30 -2 -33 49 -4 62 18 120 50 133 32 12 35
12 52 -5z"/>
<path d="M15260 11112 c-86 -12 -139 -166 -90 -262 20 -40 82 -90 110 -90 8 0
21 -9 28 -20 7 -11 19 -20 27 -20 22 0 86 61 101 97 34 80 5 225 -53 267 -28
21 -84 33 -123 28z m61 -92 c35 0 68 -173 35 -186 -22 -8 -83 22 -102 50 -33
52 0 158 44 141 8 -3 18 -5 23 -5z"/>
<path d="M5271 11087 c-5 -13 -12 -87 -16 -165 -8 -150 -3 -172 36 -172 38 0
48 37 51 186 2 108 0 145 -11 157 -19 24 -50 21 -60 -6z"/>
<path d="M6532 11098 c-12 -15 -35 -264 -30 -328 3 -43 5 -45 33 -45 47 0 56
31 57 205 0 106 -3 155 -12 165 -15 18 -34 19 -48 3z"/>
<path d="M14379 11093 c-11 -12 -13 -52 -12 -171 2 -174 12 -206 61 -200 23 3
28 9 31 38 5 52 -20 323 -31 338 -14 17 -33 15 -49 -5z"/>
<path d="M15629 11094 c-11 -13 -13 -47 -12 -143 3 -166 8 -189 39 -197 14 -4
31 -1 40 7 14 11 15 31 9 145 -9 168 -15 198 -41 202 -12 2 -27 -5 -35 -14z"/>
<path d="M6059 11047 c-18 -12 -44 -40 -57 -62 -21 -36 -23 -48 -17 -123 3
-46 12 -99 19 -117 16 -36 67 -75 101 -75 69 0 160 59 185 120 17 40 9 145
-14 193 -40 82 -144 113 -217 64z m132 -101 c28 -46 26 -120 -6 -151 -29 -30
-75 -33 -100 -5 -23 25 -31 101 -15 140 14 35 54 60 83 52 10 -3 28 -19 38
-36z"/>
<path d="M14738 11045 c-79 -54 -106 -199 -51 -282 49 -76 158 -113 219 -75
42 27 61 73 69 167 6 71 4 85 -17 125 -45 88 -143 117 -220 65z m152 -115 c26
-63 -8 -160 -56 -160 -64 0 -103 61 -83 133 6 23 16 48 22 56 33 40 95 25 117
-29z"/>
<path d="M4975 11028 c-8 -25 -25 -182 -25 -230 0 -27 5 -58 10 -69 12 -21 52
-26 67 -6 15 18 25 259 13 291 -7 19 -17 26 -35 26 -14 0 -27 -6 -30 -12z"/>
<path d="M15919 11017 c-7 -15 -7 -70 -2 -162 l8 -140 33 -3 c49 -5 56 25 42
176 -6 68 -14 130 -17 138 -9 23 -52 17 -64 -9z"/>
<path d="M13652 10637 c-17 -12 -42 -42 -53 -65 -41 -83 -7 -244 61 -292 33
-24 99 -26 138 -6 32 18 78 74 98 121 29 70 9 171 -42 216 -60 52 -146 63
-202 26z m124 -76 c86 -53 53 -185 -52 -206 -26 -5 -32 -2 -42 20 -7 14 -12
57 -12 95 0 62 2 70 26 89 33 26 41 26 80 2z"/>
<path d="M14205 10567 c-35 -16 -92 -78 -106 -114 -38 -101 49 -254 151 -263
64 -6 81 1 129 48 41 39 51 56 61 105 19 93 -5 174 -64 212 -34 23 -133 29
-171 12z m135 -104 c40 -51 10 -181 -44 -191 -32 -7 -73 19 -94 57 -31 56 -28
92 10 130 43 42 97 43 128 4z"/>
<path d="M6185 10521 c-71 -43 -105 -112 -91 -186 16 -84 81 -186 131 -205 26
-10 126 12 160 34 89 59 83 240 -11 328 -55 51 -134 63 -189 29z m127 -98 c52
-56 65 -121 34 -168 -16 -25 -21 -26 -69 -20 -29 4 -55 9 -59 11 -10 7 -38 96
-38 124 0 15 11 39 25 54 32 35 73 35 107 -1z"/>
<path d="M14625 10521 c-72 -43 -116 -124 -117 -213 -2 -111 81 -183 207 -180
69 1 167 174 152 268 -7 43 -47 98 -91 125 -40 25 -111 25 -151 0z m130 -98
c23 -23 26 -34 22 -68 -2 -22 -11 -56 -20 -76 -14 -33 -19 -37 -67 -43 -57 -8
-76 1 -92 43 -13 35 8 104 42 141 36 39 77 40 115 3z"/>
<path d="M5822 10448 c-14 -14 -15 -95 -5 -277 6 -117 7 -122 30 -127 13 -4
30 0 40 7 14 12 15 35 10 193 -5 149 -9 181 -23 197 -20 22 -35 24 -52 7z"/>
<path d="M15087 10443 c-20 -23 -43 -310 -30 -363 10 -37 42 -52 67 -30 20 16
34 374 16 395 -16 20 -33 19 -53 -2z"/>
<path d="M14637 10024 c-13 -13 -8 -359 5 -372 19 -19 56 -14 69 9 17 32 8
295 -11 334 -14 29 -48 44 -63 29z"/>
<path d="M6333 7718 c-26 -13 -32 -44 -7 -34 9 3 27 9 40 12 14 4 23 11 21 18
-5 15 -28 17 -54 4z"/>
<path d="M9320 3720 c-30 -11 -62 -20 -72 -20 -11 0 -28 -15 -39 -35 -13 -22
-29 -35 -41 -35 -14 0 -18 -5 -14 -16 4 -9 1 -24 -6 -32 -11 -13 -11 -14 1 -7
9 5 5 -5 -7 -22 -12 -18 -19 -38 -16 -47 3 -9 1 -23 -6 -31 -9 -10 -9 -15 -1
-15 6 0 11 -15 11 -34 0 -19 4 -37 8 -40 5 -3 9 -20 10 -37 0 -17 6 -37 11
-42 6 -6 11 -21 11 -34 0 -13 6 -23 13 -23 9 0 9 -2 -1 -8 -7 -5 -10 -16 -6
-25 3 -9 9 -15 13 -12 14 8 50 -25 44 -41 -3 -8 -2 -14 3 -12 5 1 23 -5 39
-13 26 -14 45 -16 104 -10 11 1 11 4 1 16 -11 14 -10 14 14 6 18 -8 26 -7 26
0 0 8 5 7 15 -1 11 -10 17 -9 29 3 8 8 13 17 10 19 -3 3 9 8 26 12 22 4 29 10
24 18 -6 10 -5 11 8 1 8 -7 18 -9 22 -5 4 4 13 7 19 7 7 0 12 7 12 15 1 8 6
14 13 13 13 -3 39 74 28 84 -4 4 -64 7 -134 8 l-126 0 -23 34 c-38 56 -34 61
51 61 39 0 70 15 61 30 -5 8 5 13 56 24 29 6 42 27 33 51 -9 23 -69 37 -152
35 -100 -3 -98 -3 -77 20 14 15 22 17 37 9 11 -6 18 -7 15 -2 -3 4 6 13 19 20
13 6 22 7 18 2 -7 -12 3 -11 42 3 19 6 36 18 39 25 3 9 0 11 -8 7 -6 -4 -2 4
11 18 12 13 22 32 22 41 0 40 -102 48 -190 17z m51 -509 c-8 -5 -23 -8 -34 -5
-33 6 -29 11 10 12 26 1 33 -1 24 -7z"/>
<path d="M10314 3710 c-12 -4 -30 -21 -42 -36 -12 -17 -29 -29 -43 -29 -17 0
-24 -6 -24 -20 0 -11 -5 -24 -11 -30 -7 -5 -17 -28 -24 -50 -7 -22 -19 -50
-26 -62 -8 -13 -13 -23 -10 -23 2 0 -2 -20 -9 -44 -8 -25 -10 -46 -5 -48 4 -2
10 -20 13 -40 3 -21 1 -36 -3 -33 -4 3 -11 -2 -14 -11 -3 -8 -2 -13 3 -10 5 4
7 -20 4 -56 -6 -58 -5 -61 15 -56 15 4 19 2 15 -8 -3 -8 0 -14 6 -14 6 0 11 7
11 15 0 9 9 15 25 15 33 0 45 26 45 97 0 103 0 102 93 98 76 -4 81 -3 62 12
-11 8 -13 13 -5 9 8 -3 23 -9 33 -12 9 -4 17 -10 17 -15 0 -5 7 -6 15 -3 10 4
22 -10 40 -47 14 -30 23 -59 21 -65 -3 -7 2 -15 11 -18 9 -4 13 -9 10 -12 -7
-7 65 -84 78 -84 4 0 5 9 2 20 -6 23 7 25 49 10 19 -7 30 -7 40 1 23 19 16 57
-22 116 l-36 56 29 23 c15 13 24 23 19 24 -5 0 -1 9 10 21 31 34 9 53 -67 57
l-64 3 -39 75 c-53 99 -120 171 -166 178 -19 2 -44 1 -56 -4z m65 -136 c26
-55 19 -68 -26 -49 -35 15 -42 39 -23 76 16 28 24 24 49 -27z m-92 -190 c-3
-3 -12 -4 -19 -1 -8 3 -5 6 6 6 11 1 17 -2 13 -5z"/>
<path d="M8555 3689 c-295 -31 -369 -45 -387 -73 -12 -18 -10 -24 24 -58 23
-24 39 -32 60 -29 15 1 28 -2 28 -8 0 -6 11 -11 25 -11 14 0 25 -5 25 -11 0
-8 4 -8 14 0 12 10 13 8 9 -9 -7 -27 23 -143 53 -199 13 -24 21 -48 18 -52 -2
-4 0 -10 6 -14 6 -4 8 -10 6 -14 -3 -4 9 -16 26 -26 17 -10 28 -13 25 -8 -4 6
10 13 33 17 67 10 72 30 49 166 -11 63 -26 137 -34 165 -16 58 -11 64 50 66
53 1 128 21 132 35 5 16 -37 61 -62 67 -11 2 -56 0 -100 -4z"/>
<path d="M11573 3643 c-13 -16 -46 -79 -73 -142 -27 -62 -56 -124 -65 -137
l-15 -24 -103 103 c-124 126 -176 159 -238 153 -24 -3 -48 -5 -52 -5 -5 -1 -5
-5 -2 -11 3 -5 1 -10 -5 -10 -6 0 -9 -4 -5 -9 3 -5 0 -13 -6 -16 -5 -4 -8 -14
-5 -22 3 -8 1 -11 -4 -8 -6 3 -10 -1 -10 -10 0 -9 -9 -34 -19 -56 -11 -21 -15
-37 -10 -33 5 3 7 -5 5 -18 -3 -13 -5 -29 -5 -36 -1 -7 -6 -10 -13 -6 -8 5 -9
-2 -5 -24 4 -19 2 -34 -5 -38 -7 -5 -8 -3 -3 6 5 9 4 11 -3 6 -7 -4 -8 -15 -2
-30 12 -31 10 -87 -3 -79 -5 3 -8 2 -5 -3 2 -5 14 -30 25 -56 19 -40 27 -48
59 -54 54 -10 74 18 74 100 0 33 7 90 15 126 8 36 17 75 20 87 3 14 12 21 25
20 10 -1 17 -3 15 -5 -4 -5 37 -54 83 -99 18 -18 31 -33 28 -33 -3 0 3 -9 15
-21 11 -11 26 -18 34 -15 7 2 28 -6 46 -20 25 -18 35 -21 41 -11 5 7 8 8 8 1
0 -6 10 -11 23 -10 12 1 21 6 20 12 -1 5 6 10 16 11 10 1 33 16 52 34 19 17
27 28 19 25 -8 -4 -7 -1 4 8 11 9 16 21 12 32 -6 15 -4 15 11 3 12 -10 15 -11
9 -1 -5 8 0 20 13 31 16 14 18 20 8 30 -9 10 -8 11 6 6 9 -4 17 -3 17 3 0 5 6
12 13 15 9 3 13 -4 12 -27 -1 -17 5 -42 13 -55 11 -19 11 -22 1 -15 -12 6 -12
5 0 -9 10 -12 10 -17 2 -17 -8 0 -6 -6 4 -16 11 -11 15 -28 12 -49 -6 -41 15
-91 42 -100 83 -26 83 138 -1 404 -43 136 -91 174 -145 114z"/>
<path d="M7711 2973 c-36 -29 -73 -103 -72 -143 4 -344 8 -477 14 -487 5 -7 4
-13 -1 -13 -6 0 -8 -16 -5 -35 3 -21 0 -35 -6 -35 -6 0 -11 -5 -11 -11 0 -5 6
-7 13 -3 8 5 7 2 -2 -9 -12 -15 -11 -20 4 -37 11 -13 14 -20 6 -20 -7 0 -9 -5
-6 -10 12 -19 15 -153 4 -166 -7 -9 -7 -19 1 -34 6 -11 8 -26 4 -32 -5 -8 3
-9 27 -5 19 3 29 3 22 1 -8 -3 1 -17 22 -35 39 -35 55 -33 102 11 29 28 31 34
38 127 11 135 -1 494 -20 611 -8 53 -22 141 -29 195 -12 83 -18 102 -41 122
-31 30 -36 30 -64 8z"/>
<path d="M8381 2969 c-103 -20 -137 -103 -157 -386 l-7 -92 31 -31 c34 -33 34
-33 223 -30 195 3 292 -27 358 -110 45 -57 54 -107 25 -148 -40 -58 -161 -78
-265 -44 -35 12 -85 26 -111 32 -26 5 -70 24 -96 40 -78 48 -131 35 -119 -30
4 -16 2 -32 -3 -35 -11 -7 -3 -33 19 -59 15 -17 63 -41 68 -34 2 2 10 -7 18
-19 9 -13 22 -20 30 -17 8 4 15 2 15 -4 0 -5 20 -17 45 -26 25 -10 45 -22 45
-27 0 -6 4 -8 9 -4 5 3 13 0 16 -6 4 -5 13 -8 20 -5 8 3 19 -1 25 -9 6 -7 22
-12 35 -10 14 1 25 -3 25 -9 0 -14 127 -16 148 -3 7 5 12 3 12 -3 0 -16 37 -3
62 22 14 14 23 16 32 9 14 -11 26 -5 26 13 0 6 -5 4 -10 -4 -7 -10 -10 -11
-10 -2 0 7 10 16 23 21 24 9 66 51 51 51 -5 0 2 6 16 13 14 7 26 23 28 35 2
13 10 26 18 29 9 3 14 20 14 45 0 23 4 37 10 33 6 -3 10 -2 10 4 0 5 -5 13
-11 16 -6 5 -4 12 8 21 17 12 16 13 -7 14 -14 0 -20 4 -14 8 6 4 13 19 16 35
4 21 2 25 -7 17 -9 -8 -11 -4 -7 15 3 18 -2 31 -19 45 -13 10 -18 19 -11 20 6
0 12 5 12 11 0 5 -3 8 -7 6 -5 -2 -16 4 -25 15 -10 10 -16 18 -13 18 3 0 1 9
-5 21 -7 12 -18 18 -26 15 -9 -4 -12 -2 -8 5 5 9 -31 44 -47 44 -3 0 -13 8
-23 18 -10 9 -26 17 -37 17 -11 0 -38 8 -59 19 -24 11 -40 15 -43 8 -3 -11
-107 19 -107 32 0 3 -22 7 -50 7 -27 0 -50 -3 -50 -8 0 -4 -7 -5 -15 -2 -8 4
-23 3 -32 -1 -32 -14 -52 -12 -59 4 -13 29 -14 51 -3 48 6 -1 14 4 16 11 3 6
0 12 -5 12 -15 0 25 104 46 118 23 15 52 6 53 -17 0 -12 2 -12 9 4 l9 20 0
-20 c1 -12 4 -16 9 -9 10 16 92 25 89 11 -1 -7 5 -12 13 -13 8 0 25 -4 38 -8
13 -4 28 -3 36 3 9 8 13 7 13 -4 0 -8 -5 -11 -10 -8 -6 3 -7 1 -3 -5 4 -7 15
-8 29 -3 20 8 64 -4 77 -20 7 -9 43 -8 56 3 6 4 18 6 26 3 27 -11 88 60 88
102 0 45 -106 102 -190 103 -14 0 -70 11 -125 24 -114 27 -239 37 -304 25z
m479 -469 c0 -5 -2 -10 -4 -10 -3 0 -8 5 -11 10 -3 6 -1 10 4 10 6 0 11 -4 11
-10z m96 -407 c-14 -20 -26 -33 -26 -28 0 6 -8 -5 -16 -22 -9 -18 -20 -30 -25
-27 -5 3 -9 0 -9 -6 0 -6 -4 -8 -10 -5 -5 3 -10 1 -10 -6 0 -7 -3 -10 -6 -7
-8 9 87 128 103 128 7 0 13 5 13 12 0 6 3 9 6 5 3 -3 -6 -23 -20 -44z m-127
-120 c0 -12 -2 -13 -6 -5 -4 10 -8 10 -19 1 -11 -9 -14 -8 -14 5 0 9 8 16 20
16 13 0 20 -6 19 -17z m-84 -3 c4 -6 -2 -9 -14 -7 -29 4 -39 17 -13 17 11 0
24 -5 27 -10z"/>
<path d="M11870 2956 c-76 -29 -88 -35 -109 -62 -34 -43 -44 -99 -39 -225 5
-135 20 -175 65 -166 34 6 83 -11 77 -27 -5 -13 28 -19 96 -18 48 2 100 -14
100 -30 0 -5 5 -6 10 -3 6 3 13 -1 16 -9 3 -9 12 -16 18 -16 7 0 20 -16 29
-35 9 -19 22 -35 27 -35 6 0 9 -4 6 -9 -3 -5 1 -12 9 -15 12 -4 14 -10 5 -25
-7 -13 -7 -22 0 -26 6 -4 7 -11 4 -17 -5 -8 -1 -9 10 -5 14 6 16 3 10 -16 -4
-12 -11 -23 -15 -25 -5 -2 -9 -9 -9 -17 0 -13 -50 -38 -76 -38 -8 0 -14 -3
-14 -6 0 -15 -51 -4 -56 12 -5 14 -17 22 -26 15 -2 -1 -16 10 -32 25 -16 15
-36 27 -44 27 -8 0 -27 13 -43 29 -15 16 -30 27 -33 23 -3 -3 -6 0 -6 6 0 16
-13 15 -36 -4 -16 -13 -16 -15 -2 -10 18 6 18 4 -10 -51 -23 -44 -14 -63 71
-148 89 -90 119 -105 212 -105 72 0 116 15 163 56 59 50 84 104 90 191 8 125
-46 252 -133 314 -50 36 -184 88 -247 96 -26 3 -45 10 -42 14 5 8 -3 11 -22 8
-14 -2 -21 24 -19 69 2 42 5 49 36 64 36 19 89 24 89 9 0 -5 7 -12 16 -15 8
-3 13 -2 9 3 -8 13 17 20 37 10 10 -5 19 -5 23 0 7 12 46 5 56 -10 5 -8 8 -7
12 2 4 11 6 10 12 -3 6 -15 9 -14 31 5 14 12 22 27 19 37 -3 9 4 25 15 35 27
24 25 57 -4 84 -43 40 -281 65 -356 37z m282 -117 c17 -9 18 -13 7 -20 -21
-13 -29 -11 -23 6 5 11 2 13 -12 8 -12 -4 -15 -3 -10 5 9 15 12 15 38 1z"/>
<path d="M9745 2936 c-34 -15 -92 -76 -106 -113 -11 -29 -3 -67 17 -84 8 -6
14 -20 14 -31 0 -10 5 -16 10 -13 14 9 13 -8 -2 -23 -18 -18 -1 -14 22 5 11
10 20 28 20 40 0 16 8 25 25 29 14 3 23 10 20 14 -6 10 58 22 79 14 9 -3 13
-10 10 -15 -3 -5 3 -9 13 -9 10 0 25 -9 33 -19 7 -11 18 -17 24 -14 6 3 8 3 4
-2 -4 -4 -2 -17 4 -29 16 -29 19 -86 5 -86 -7 0 -3 -7 7 -15 11 -8 16 -15 10
-15 -5 0 -10 -11 -10 -24 -1 -17 3 -23 11 -19 9 3 12 -2 10 -14 -2 -10 -4 -18
-5 -18 -1 0 -3 -18 -4 -40 -2 -22 -4 -43 -5 -46 0 -3 -30 -11 -66 -18 -100
-18 -195 -57 -258 -106 -49 -39 -59 -53 -73 -101 -21 -73 -12 -137 26 -194 5
-8 15 -28 21 -45 8 -23 12 -26 19 -15 8 12 10 12 10 1 0 -7 6 -11 15 -8 18 7
30 -9 13 -17 -7 -3 -4 -5 7 -4 11 0 31 -4 45 -9 14 -6 30 -9 36 -6 6 2 17 -3
24 -12 13 -16 35 -21 25 -5 -3 5 13 15 36 22 25 7 44 19 47 30 4 17 15 22 35
19 5 -1 6 3 2 8 -3 6 6 13 20 17 16 4 25 13 25 25 0 10 5 19 10 19 6 0 10 6
10 14 0 8 3 16 8 18 9 4 62 74 62 82 0 10 36 42 54 49 13 5 17 3 13 -6 -4 -10
6 -14 36 -15 23 -1 44 -7 45 -12 2 -6 10 -10 18 -10 9 0 13 -4 10 -9 -3 -5 9
-18 27 -30 30 -19 33 -19 39 -3 6 16 7 16 7 0 1 -11 9 -18 21 -18 13 0 24 -10
30 -25 6 -16 14 -23 25 -19 10 4 15 0 15 -10 0 -9 7 -16 16 -16 8 0 12 -4 9
-10 -3 -5 -1 -10 6 -10 7 0 9 -3 6 -7 -8 -7 23 -32 41 -33 7 0 11 4 8 9 -3 4
3 16 14 26 16 14 17 20 8 27 -9 5 -4 8 13 8 29 0 49 17 49 40 0 20 -123 141
-205 201 -33 24 -95 62 -137 83 -74 37 -77 40 -74 70 2 17 -1 37 -6 44 -6 6
-7 12 -2 12 4 0 0 6 -10 13 -16 12 -16 14 -2 26 15 13 15 16 -1 34 -10 11 -12
17 -5 13 11 -7 12 -4 2 13 -6 12 -13 31 -16 42 -2 10 -6 29 -9 42 -7 32 -23
74 -58 145 -61 128 -189 193 -292 148z m109 -806 c-48 -68 -139 -113 -159 -80
-3 6 -1 10 5 10 6 0 15 11 21 24 6 13 22 29 35 36 13 7 21 18 17 23 -3 6 -2 7
4 4 5 -4 19 2 30 13 12 10 24 16 27 13 3 -4 6 1 6 11 0 9 4 15 9 11 5 -3 13 0
17 6 5 8 9 7 16 -4 6 -12 -2 -30 -28 -67z"/>
<path d="M10888 2881 c-14 -17 -24 -31 -22 -31 3 0 -1 -6 -8 -14 -9 -10 -15
-11 -20 -2 -6 8 -8 8 -8 -1 0 -7 -6 -10 -14 -7 -11 4 -14 -4 -11 -38 2 -24 4
-45 5 -48 1 -3 1 -20 0 -39 -1 -18 2 -31 7 -28 5 3 7 -10 5 -28 -2 -19 1 -48
6 -64 8 -22 7 -31 -1 -34 -8 -2 -6 -9 5 -20 12 -13 16 -31 14 -67 -1 -27 1
-51 5 -52 4 -2 10 -28 14 -58 9 -79 13 -102 20 -130 4 -14 10 -41 15 -60 4
-19 12 -47 18 -62 6 -15 9 -35 5 -45 -4 -10 -2 -14 4 -10 7 5 10 -8 8 -37 -1
-25 2 -50 6 -58 7 -10 9 -10 9 2 1 12 3 11 11 -2 5 -10 17 -18 25 -18 8 0 12
5 9 10 -3 6 -3 10 2 10 4 0 9 14 10 30 5 82 7 89 24 93 9 3 25 19 34 37 16 31
16 41 1 159 -18 138 -46 468 -46 542 0 57 -21 86 -70 94 -30 5 -39 2 -62 -24z"/>
</g>
</svg>
